<svg width="20" height="20" viewBox="0 0 20 20" fill="none" xmlns="http://www.w3.org/2000/svg">
<path fill-rule="evenodd" clip-rule="evenodd" d="M10 20C4.486 20 0 15.514 0 10C0 4.486 4.486 0 10 0C15.514 0 20 4.486 20 10C20 15.514 15.514 20 10 20ZM10 18.5C14.687 18.5 18.5 14.687 18.5 10C18.5 5.313 14.687 1.5 10 1.5C5.313 1.5 1.5 5.313 1.5 10C1.5 14.687 5.313 18.5 10 18.5ZM5.999 11.9741C5.706 11.6821 5.705 11.2071 5.997 10.9131L9.469 7.4271C9.581 7.3135 9.72628 7.24022 9.8818 7.21545L10 7.2061C10.199 7.2061 10.391 7.2851 10.531 7.4271L14.002 10.9131C14.295 11.2071 14.293 11.6821 14 11.9741C13.706 12.2661 13.231 12.2661 12.939 11.9721L10 9.0181L7.06 11.9721C6.768 12.2661 6.293 12.2661 5.999 11.9741Z" fill="#262626"/>
</svg>
