<svg width="23" height="20" viewBox="0 0 23 20" fill="none" xmlns="http://www.w3.org/2000/svg">
<path d="M13.7222 0C14.8 0.0110988 15.6778 0.566038 16.1889 1.56493C16.3208 1.82852 16.5049 2.21351 16.6976 2.61964L16.9302 3.11071L17.0444 3.35183L17.1556 3.596C17.2 3.6737 17.2778 3.72919 17.3778 3.72919C20.0444 3.72919 22.2222 5.90455 22.2222 8.56826V15.1609C22.2222 17.8246 20.0444 20 17.3778 20H4.84444C2.16667 20 0 17.8246 0 15.1609V8.56826C0 5.90455 2.16667 3.72919 4.84444 3.72919C4.93333 3.72919 5.02222 3.68479 5.05556 3.596L5.12222 3.46282C5.43333 2.80799 5.81111 2.00888 6.03333 1.56493C6.54444 0.566038 7.41111 0.0110988 8.48889 0H13.7222ZM11.1111 7.11432C9.94444 7.11432 8.84444 7.56937 8.01111 8.40178C7.18889 9.23419 6.73333 10.3219 6.74444 11.4761C6.74444 12.6415 7.2 13.7292 8.02222 14.5616C8.85555 15.3829 9.94444 15.838 11.1111 15.838C12.3111 15.838 13.4 15.3496 14.1889 14.5616C14.9778 13.7736 15.4667 12.6859 15.4778 11.4761C15.4778 10.3219 15.0222 9.22309 14.2 8.39068C13.3778 7.56937 12.2778 7.11432 11.1111 7.11432ZM11.1111 8.77913C11.8333 8.77913 12.5111 9.0566 13.0222 9.56715C13.5333 10.0777 13.8111 10.7547 13.8111 11.4761C13.8 12.9634 12.6 14.1731 11.1111 14.1731C10.3889 14.1731 9.71111 13.8957 9.2 13.3851C8.68889 12.8746 8.41111 12.1976 8.41111 11.4761V11.465C8.4 10.7658 8.67778 10.0888 9.18889 9.57825C9.71111 9.0566 10.3889 8.77913 11.1111 8.77913ZM17.3444 6.84795C16.7889 6.84795 16.3444 7.303 16.3444 7.85794C16.3444 8.41288 16.7889 8.85683 17.3444 8.85683C17.9 8.85683 18.3556 8.41288 18.3556 7.85794C18.3556 7.303 17.9 6.84795 17.3444 6.84795Z" fill="white"/>
</svg>
