<svg width="20" height="20" viewBox="0 0 20 20" fill="none" xmlns="http://www.w3.org/2000/svg">
<g clip-path="url(#clip0_6_340)">
<path fill-rule="evenodd" clip-rule="evenodd" d="M19.7917 19.2083L18.625 14.625C19.375 13.25 19.7917 11.6667 19.7917 10C19.7917 4.58334 15.4167 0.208344 10 0.208344C4.58333 0.208344 0.208332 4.58334 0.208332 10C0.208332 15.4167 4.58333 19.7917 10 19.7917C11.6667 19.7917 13.25 19.375 14.625 18.625L19.2083 19.7917C19.5417 19.875 19.875 19.5417 19.7917 19.2083ZM18.5417 10C18.5417 11.6667 18.125 12.9167 17.4583 14.1667C17.375 14.3333 17.3333 14.5417 17.375 14.75L18.25 18.25L14.7917 17.375C14.5833 17.3333 14.375 17.3333 14.2083 17.4583C13.4583 17.875 12.0417 18.5417 10.0417 18.5417C5.29167 18.5417 1.45833 14.7083 1.45833 10C1.45833 5.29168 5.29166 1.45834 10 1.45834C14.7083 1.45834 18.5417 5.29168 18.5417 10Z" fill="#262626"/>
</g>
<defs>
<clipPath id="clip0_6_340">
<rect width="20" height="20" fill="white"/>
</clipPath>
</defs>
</svg>
