<svg width="20" height="20" viewBox="0 0 20 20" fill="none" xmlns="http://www.w3.org/2000/svg">
<path fill-rule="evenodd" clip-rule="evenodd" d="M10 0C4.5 0 0 4.5 0 10C0 15.5 4.5 20 10 20C15.5 20 20 15.5 20 10C20 4.5 15.5 0 10 0ZM15.0833 5.75L12.1667 11.9167C12.125 12.0417 12 12.1667 11.875 12.2083L5.70833 15.125C5.625 15.1667 5.54167 15.1667 5.45833 15.1667C5.29167 15.1667 5.125 15.0833 5 15C4.83333 14.8333 4.75 14.5417 4.875 14.2917L7.79167 8.125C7.83333 8 7.95833 7.875 8.08333 7.83333L14.25 4.91667C14.5 4.79167 14.7917 4.83333 14.9583 5.04167C15.1667 5.20833 15.2083 5.5 15.0833 5.75V5.75ZM8.83333 8.83333L6.75 13.2083L11.125 11.125L8.83333 8.83333Z" fill="#FFCB37"/>
</svg>
