<svg width="21" height="20" viewBox="0 0 21 20" fill="none" xmlns="http://www.w3.org/2000/svg">
<path d="M2.19178 17.8082H3.72603L13.1781 8.35616L11.6438 6.82192L2.19178 16.274V17.8082ZM17.863 6.76712L13.2055 2.16438L14.7397 0.630137C15.1598 0.210046 15.676 0 16.2882 0C16.8997 0 17.4155 0.210046 17.8356 0.630137L19.3699 2.16438C19.79 2.58447 20.0091 3.09151 20.0274 3.68548C20.0457 4.27872 19.8447 4.78539 19.4247 5.20548L17.863 6.76712ZM1.09589 20C0.785388 20 0.525297 19.8948 0.315617 19.6844C0.105206 19.4747 0 19.2146 0 18.9041V15.8082C0 15.6621 0.0273973 15.5207 0.0821918 15.3841C0.136986 15.2468 0.219178 15.1233 0.328767 15.0137L11.6164 3.72603L16.274 8.38356L4.9863 19.6712C4.87671 19.7808 4.75361 19.863 4.61699 19.9178C4.47963 19.9726 4.3379 20 4.19178 20H1.09589ZM12.411 7.58904L11.6438 6.82192L13.1781 8.35616L12.411 7.58904Z" fill="#262626"/>
</svg>
