<svg width="20" height="20" viewBox="0 0 20 20" fill="none" xmlns="http://www.w3.org/2000/svg">
<path d="M18.4391 20H12.0708C11.7378 20 11.4464 19.7086 11.4464 19.3757V14.256C11.4464 13.1738 10.6139 12.3413 9.53174 12.3413C8.44953 12.3413 7.61707 13.1738 7.61707 14.256V19.3757C7.61707 19.7086 7.3257 20 6.99272 20H0.62435C0.291363 20 0 19.7086 0 19.3757V9.59417C0 9.42768 0.0832466 9.26119 0.166493 9.13632L9.1155 0.187305C9.36524 -0.062435 9.73985 -0.062435 9.98959 0.187305L18.9386 9.13632C19.1051 9.30281 19.1883 9.59417 19.0635 9.80229C19.0635 9.84391 19.0219 9.84391 19.0219 9.88554V19.3757C19.0635 19.7086 18.7721 20 18.4391 20ZM12.6951 18.7513H17.8148V9.76067L9.57336 1.51925L1.2487 9.84391V18.7513H6.36837V14.256C6.36837 12.4662 7.74193 11.0926 9.53174 11.0926C11.3215 11.0926 12.6951 12.4662 12.6951 14.256V18.7513Z" fill="#262626"/>
</svg>
