<svg width="20" height="20" viewBox="0 0 20 20" fill="none" xmlns="http://www.w3.org/2000/svg">
<path d="M18.5224 20H12.1124C11.7794 20 11.488 19.7086 11.488 19.3757V14.256C11.488 13.1738 10.6139 12.3413 9.57336 12.3413C8.53278 12.3413 7.65869 13.2154 7.65869 14.256V19.3757C7.65869 19.7086 7.36733 20 7.03434 20H0.62435C0.291363 20 0 19.7086 0 19.3757V9.59417C0 9.42768 0.0832466 9.26119 0.166493 9.13632L9.1155 0.187305C9.36524 -0.062435 9.78148 -0.062435 9.98959 0.187305L18.9386 9.13632C19.0635 9.26119 19.1051 9.42768 19.1051 9.59417V19.3757C19.1467 19.7086 18.8554 20 18.5224 20Z" fill="#FFCB37"/>
</svg>
