<svg width="21" height="20" viewBox="0 0 21 20" fill="none" xmlns="http://www.w3.org/2000/svg">
<path d="M17.1135 13.1641L15.5118 11.5625L17.1135 9.96087C17.5342 9.54013 17.8679 9.04065 18.0956 8.49094C18.3233 7.94122 18.4405 7.35204 18.4405 6.75704C18.4405 6.16203 18.3233 5.57285 18.0956 5.02314C17.8679 4.47342 17.5342 3.97394 17.1135 3.55321C16.6927 3.13247 16.1933 2.79873 15.6435 2.57103C15.0938 2.34333 14.5046 2.22614 13.9096 2.22614C13.3146 2.22614 12.7255 2.34333 12.1757 2.57103C11.626 2.79873 11.1265 3.13247 10.7058 3.55321L9.10418 5.15484L7.50254 3.55321L9.10418 1.95158C10.3822 0.694193 12.1053 -0.00724391 13.8982 5.64186e-05C15.691 0.00735675 17.4084 0.722802 18.6761 1.99055C19.9439 3.2583 20.6593 4.97564 20.6666 6.7685C20.6739 8.56135 19.9725 10.2845 18.7151 11.5625L17.1135 13.1641ZM13.9091 16.3685L12.3074 17.9702C11.6782 18.6097 10.9287 19.1183 10.1019 19.4667C9.27519 19.815 8.38765 19.9963 7.49052 19.9999C6.59338 20.0036 5.7044 19.8296 4.87485 19.488C4.0453 19.1463 3.2916 18.6438 2.65722 18.0094C2.02285 17.3751 1.52035 16.6214 1.17872 15.7918C0.837084 14.9623 0.663075 14.0733 0.666728 13.1762C0.670381 12.279 0.851624 11.3915 1.2 10.5647C1.54838 9.73801 2.057 8.98842 2.69652 8.35923L4.29815 6.7576L5.89978 8.35923L4.29815 9.96087C3.87742 10.3816 3.54367 10.8811 3.31598 11.4308C3.08828 11.9805 2.97108 12.5697 2.97108 13.1647C2.97108 13.7597 3.08828 14.3489 3.31598 14.8986C3.54367 15.4483 3.87742 15.9478 4.29815 16.3685C4.71888 16.7893 5.21837 17.123 5.76808 17.3507C6.31779 17.5784 6.90697 17.6956 7.50198 17.6956C8.09698 17.6956 8.68616 17.5784 9.23588 17.3507C9.78559 17.123 10.2851 16.7893 10.7058 16.3685L12.3074 14.7669L13.9091 16.3685ZM13.9091 5.15484L15.5118 6.7576L7.50254 14.7658L5.89978 13.1641L13.9091 5.15484Z" fill="#262626"/>
</svg>
