<svg width="19" height="20" viewBox="0 0 19 20" fill="none" xmlns="http://www.w3.org/2000/svg">
<path d="M9.30257 0C12.7268 0 15.8142 2.38605 15.8142 5.5814V9.80372C15.8142 10.4009 15.99 10.9842 16.3212 11.4809L18.3677 14.5488C18.5098 14.7614 18.5914 15.0086 18.6039 15.264C18.6164 15.5194 18.5593 15.7734 18.4387 15.9989C18.318 16.2243 18.1384 16.4128 17.9189 16.544C17.6995 16.6753 17.4485 16.7445 17.1928 16.7442H12.5584C12.5584 17.1717 12.4742 17.5951 12.3105 17.9901C12.1469 18.3851 11.9071 18.7441 11.6048 19.0464C11.3024 19.3487 10.9435 19.5885 10.5485 19.7522C10.1535 19.9158 9.73013 20 9.30257 20C8.87501 20 8.45164 19.9158 8.05662 19.7522C7.66161 19.5885 7.30269 19.3487 7.00036 19.0464C6.69803 18.7441 6.45821 18.3851 6.29459 17.9901C6.13097 17.5951 6.04675 17.1717 6.04675 16.7442H1.41326C1.15767 16.7444 0.90682 16.6752 0.687451 16.5441C0.468081 16.4129 0.288424 16.2247 0.167636 15.9994C0.0468487 15.7742 -0.0105394 15.5204 0.00159178 15.2651C0.013723 15.0098 0.0949185 14.7625 0.23652 14.5498L2.28303 11.4809C2.61421 10.9843 2.79093 10.4007 2.79094 9.80372V5.5814C2.79094 2.38605 5.87745 0 9.30257 0ZM4.18629 5.5814V9.80372C4.18653 10.676 3.92856 11.5289 3.44489 12.2549L1.39838 15.3228L1.39559 15.3321L1.39652 15.3386L1.40024 15.3442L1.40582 15.3479L1.41233 15.3488H17.1928L17.1993 15.3479L17.2049 15.3442L17.2086 15.3386L17.2095 15.333C17.2096 15.3297 17.2086 15.3265 17.2068 15.3237L15.1612 12.2549C14.6773 11.529 14.419 10.6761 14.4188 9.80372V5.5814C14.4188 3.38233 12.2021 1.39535 9.30257 1.39535C6.40303 1.39535 4.18629 3.38233 4.18629 5.5814ZM11.163 16.7442H7.4421C7.4421 17.2376 7.63811 17.7108 7.98702 18.0597C8.33593 18.4086 8.80914 18.6047 9.30257 18.6047C9.79599 18.6047 10.2692 18.4086 10.6181 18.0597C10.967 17.7108 11.163 17.2376 11.163 16.7442Z" fill="#262626"/>
</svg>
