<svg width="19" height="20" viewBox="0 0 19 20" fill="none" xmlns="http://www.w3.org/2000/svg">
<path d="M3.07692 6.15385C3.07692 4.52174 3.72527 2.95649 4.87934 1.80242C6.03341 0.64835 7.59867 0 9.23077 0C10.8629 0 12.4281 0.64835 13.5822 1.80242C14.7363 2.95649 15.3846 4.52174 15.3846 6.15385V9.14564C15.3846 9.86667 15.6185 10.5682 16.0513 11.1456L18.1538 13.9487C18.3253 14.1773 18.4297 14.4491 18.4553 14.7336C18.481 15.0182 18.4269 15.3043 18.2991 15.5598C18.1713 15.8154 17.9749 16.0303 17.7319 16.1805C17.4889 16.3307 17.2088 16.4103 16.9231 16.4103H1.53846C1.25275 16.4103 0.972685 16.3307 0.729645 16.1805C0.486605 16.0303 0.290194 15.8154 0.16242 15.5598C0.0346468 15.3043 -0.0194412 15.0182 0.00621717 14.7336C0.0318756 14.4491 0.136267 14.1773 0.307693 13.9487L2.41026 11.1456C2.843 10.5687 3.07692 9.86688 3.07692 9.14564V6.15385ZM9.23077 20C8.45764 19.9999 7.70518 19.7503 7.08524 19.2883C6.46529 18.8264 6.01095 18.1767 5.78974 17.4359H12.6718C12.4506 18.1767 11.9962 18.8264 11.3763 19.2883C10.7564 19.7503 10.0039 19.9999 9.23077 20Z" fill="#FFCB37"/>
</svg>
