<svg width="22" height="22" viewBox="0 0 22 22" fill="none" xmlns="http://www.w3.org/2000/svg">
<path d="M11 1C5.477 1 1 5.477 1 11C1 16.523 5.477 21 11 21C16.523 21 21 16.523 21 11C21 5.477 16.523 1 11 1Z" fill="white" stroke="white" stroke-width="1.5" stroke-linecap="round" stroke-linejoin="round"/>
<path fill-rule="evenodd" clip-rule="evenodd" d="M21 11C21 13.6522 19.9464 16.1957 18.0711 18.0711C16.1957 19.9464 13.6522 21 11 21C8.34784 21 5.8043 19.9464 3.92893 18.0711C2.05357 16.1957 1 13.6522 1 11C1 8.34784 2.05357 5.8043 3.92893 3.92893C5.8043 2.05357 8.34784 1 11 1C13.6522 1 16.1957 2.05357 18.0711 3.92893C19.9464 5.8043 21 8.34784 21 11ZM14.125 7.875C14.125 8.7038 13.7958 9.49866 13.2097 10.0847C12.6237 10.6708 11.8288 11 11 11C10.1712 11 9.37634 10.6708 8.79029 10.0847C8.20424 9.49866 7.875 8.7038 7.875 7.875C7.875 7.0462 8.20424 6.25134 8.79029 5.66529C9.37634 5.07924 10.1712 4.75 11 4.75C11.8288 4.75 12.6237 5.07924 13.2097 5.66529C13.7958 6.25134 14.125 7.0462 14.125 7.875ZM11 13.5C9.83802 13.4989 8.69175 13.7683 7.65188 14.2868C6.61201 14.8054 5.7071 15.5588 5.00875 16.4875C5.76905 17.3196 6.69459 17.984 7.72621 18.4381C8.75783 18.8923 9.87284 19.1262 11 19.125C12.1272 19.1262 13.2422 18.8923 14.2738 18.4381C15.3054 17.984 16.2309 17.3196 16.9913 16.4875C16.2929 15.5588 15.388 14.8054 14.3481 14.2868C13.3083 13.7683 12.162 13.4989 11 13.5Z" fill="#FFCB37"/>
</svg>
