<svg width="21" height="20" viewBox="0 0 21 20" fill="none" xmlns="http://www.w3.org/2000/svg">
<path d="M14.6444 0H6.35556L0.5 5.85556V14.1444L6.35556 20H14.6444L20.5 14.1444V5.85556L14.6444 0ZM18.2778 13.2222L13.7222 17.7778H7.27778L2.72222 13.2222V6.77778L7.27778 2.22222H13.7222L18.2778 6.77778V13.2222Z" fill="#FA5652"/>
<path d="M10.5 15.5555C11.1136 15.5555 11.6111 15.0581 11.6111 14.4444C11.6111 13.8308 11.1136 13.3333 10.5 13.3333C9.88635 13.3333 9.38889 13.8308 9.38889 14.4444C9.38889 15.0581 9.88635 15.5555 10.5 15.5555Z" fill="#FA5652"/>
<path d="M9.38889 4.44446H11.6111V12.2222H9.38889V4.44446Z" fill="#FA5652"/>
</svg>
